HIERARCHY
ROOT Hips
{
	OFFSET 53.088799 -10.543715 96.063499
	CHANNELS 6 Xposition Yposition Zposition Xrotation Yrotation Zrotation
	JOINT spine
	{
		OFFSET 0.000000 -0.467661 8.132492
		CHANNELS 3 Xrotation Yrotation Zrotation
		JOINT spine1
		{
			OFFSET 0.000000 -0.000002 10.349800
			CHANNELS 3 Xrotation Yrotation Zrotation
			JOINT spine2
			{
				OFFSET 0.000000 -0.000001 9.916992
				CHANNELS 3 Xrotation Yrotation Zrotation
				JOINT Neck
				{
					OFFSET 0.000000 -1.213904 25.460999
					CHANNELS 3 Xrotation Yrotation Zrotation
					JOINT Head
					{
						OFFSET 0.000000 -0.000001 7.692444
						CHANNELS 3 Xrotation Yrotation Zrotation
						End Site
						{
							OFFSET 0.000000 6.140627 18.619995
						}
					}
				}
				JOINT RightShoulder
				{
					OFFSET -4.175751 0.581443 10.709595
					CHANNELS 3 Xrotation Yrotation Zrotation
					JOINT RightArm
					{
						OFFSET 0.000000 -0.000002 14.046600
						CHANNELS 3 Xrotation Yrotation Zrotation
						JOINT RightArmRoll
						{
							OFFSET 0.000000 -0.000002 7.090988
							CHANNELS 3 Xrotation Yrotation Zrotation
							JOINT RightForeArm
							{
								OFFSET 0.000000 -0.000003 20.653503
								CHANNELS 3 Xrotation Yrotation Zrotation
								JOINT RightForeArmRoll
								{
									OFFSET 0.000000 -0.000002 7.957184
									CHANNELS 3 Xrotation Yrotation Zrotation
									JOINT RightHand
									{
										OFFSET 0.000000 -0.000002 15.968292
										CHANNELS 3 Xrotation Yrotation Zrotation
										End Site
										{
											OFFSET 0.000000 0.000000 0.100006
										}
									}
								}
							}
						}
					}
				}
				JOINT LeftShoulder
				{
					OFFSET 4.175751 0.581443 10.709595
					CHANNELS 3 Xrotation Yrotation Zrotation
					JOINT LeftArm
					{
						OFFSET 0.000000 -0.000002 14.046600
						CHANNELS 3 Xrotation Yrotation Zrotation
						JOINT LeftArmRoll
						{
							OFFSET 0.000000 -0.000002 7.090988
							CHANNELS 3 Xrotation Yrotation Zrotation
							JOINT LeftForeArm
							{
								OFFSET 0.000000 -0.000003 20.653503
								CHANNELS 3 Xrotation Yrotation Zrotation
								JOINT LeftForeArmRoll
								{
									OFFSET 0.000000 -0.000002 7.957184
									CHANNELS 3 Xrotation Yrotation Zrotation
									JOINT LeftHand
									{
										OFFSET 0.000000 -0.000002 15.968292
										CHANNELS 3 Xrotation Yrotation Zrotation
										End Site
										{
											OFFSET 0.000000 0.000000 0.100006
										}
									}
								}
							}
						}
					}
				}
			}
		}
	}
	JOINT RightUpLeg
	{
		OFFSET -7.208340 1.108840 -1.321823
		CHANNELS 3 Xrotation Yrotation Zrotation
		JOINT RightUpLegRoll
		{
			OFFSET 0.000000 -0.000003 18.723801
			CHANNELS 3 Xrotation Yrotation Zrotation
			JOINT RightLeg
			{
				OFFSET 0.000000 0.000004 -23.186600
				CHANNELS 3 Xrotation Yrotation Zrotation
				JOINT RightLegRoll
				{
					OFFSET 0.000000 -0.000004 23.262398
					CHANNELS 3 Xrotation Yrotation Zrotation
					JOINT RightFoot
					{
						OFFSET 0.000000 -0.000004 19.362106
						CHANNELS 3 Xrotation Yrotation Zrotation
						JOINT RightToeBase
						{
							OFFSET 0.000000 -0.000002 16.185699
							CHANNELS 3 Xrotation Yrotation Zrotation
							End Site
							{
								OFFSET 0.006859 0.903521 7.838623
							}
						}
					}
				}
			}
		}
	}
	JOINT LeftUpLeg
	{
		OFFSET 7.208340 1.108840 -1.321823
		CHANNELS 3 Xrotation Yrotation Zrotation
		JOINT LeftUpLegRoll
		{
			OFFSET 0.000000 -0.000003 18.723900
			CHANNELS 3 Xrotation Yrotation Zrotation
			JOINT LeftLeg
			{
				OFFSET 0.000000 -0.000004 23.186493
				CHANNELS 3 Xrotation Yrotation Zrotation
				JOINT LeftLegRoll
				{
					OFFSET 0.000000 -0.000004 23.477509
					CHANNELS 3 Xrotation Yrotation Zrotation
					JOINT LeftFoot
					{
						OFFSET 0.000000 -0.000004 19.147003
						CHANNELS 3 Xrotation Yrotation Zrotation
						JOINT LeftToeBase
						{
							OFFSET 0.000000 -0.000002 16.185699
							CHANNELS 3 Xrotation Yrotation Zrotation
							End Site
							{
								OFFSET -0.030746 0.903521 7.838623
							}
						}
					}
				}
			}
		}
	}
}
MOTION
Frames: 8
Frame Time: 0.041667
53.015900 -9.567721 96.059097 -4.597951 0.018142 1.902869 -1.772711 -0.348192 0.094079 0.457928 -0.698834 0.180999 2.103045 -0.696607 0.189359 12.037593 5.080287 -3.587654 -0.982617 0.417212 -3.911594 -16.541415 -57.190270 -19.518922 -50.830162 -132.780722 -98.656687 -0.000001 -0.000003 -0.000007 104.979659 4.759547 -15.846099 0.000003 0.000004 -2.999998 -5.000212 -7.998983 0.000129 -10.489943 62.876085 12.600105 -59.397661 140.176273 91.289044 -0.000000 -0.000002 0.000005 91.827727 -4.108953 7.364570 0.000007 0.000020 2.999999 -5.000212 7.998746 -0.000145 -0.459690 -172.540236 4.034898 -179.999991 0.000007 -0.952998 168.436481 -1.501903 -0.687262 -0.000001 0.000001 0.020272 70.090459 5.997058 4.413596 25.458265 -7.355615 0.002026 0.463441 173.396223 -1.974837 -0.000020 -0.000005 -0.962296 -12.387521 1.466735 0.731431 -0.000007 -0.000001 -0.123658 72.178769 -6.061012 -4.219545 25.458772 7.355611 -0.002702 
53.010399 -9.567860 96.058502 -4.588966 0.018650 1.901238 -1.776233 -0.348626 0.093957 0.450896 -0.699188 0.180525 2.096004 -0.696970 0.188886 12.109300 5.075589 -3.585958 -1.078379 0.401283 -3.904507 -16.538470 -57.199317 -19.515515 -50.947050 -132.702325 -98.678898 0.000003 -0.000002 -0.000009 105.004323 4.760635 -15.855295 0.000001 -0.000000 -2.999999 -5.000212 -7.998987 0.000131 -10.457710 62.879719 12.563020 -59.440172 140.018837 91.384338 -0.000001 -0.000000 0.000005 91.878564 -4.131409 7.395764 0.000005 0.000020 2.999999 -5.000211 7.998740 -0.000145 -0.470362 -172.540264 4.032792 -179.999991 0.000005 -0.952998 168.433367 -1.501886 -0.687343 -0.000001 0.000000 0.020351 70.092276 5.997198 4.412922 25.458261 -7.355616 0.002025 0.454406 173.395198 -1.973487 -0.000020 -0.000005 -0.962276 -12.388723 1.467333 0.731639 -0.000006 -0.000000 -0.123658 72.180005 -6.060914 -4.219665 25.458767 7.355612 -0.002702 
53.012600 -9.564374 96.058502 -4.581350 0.018951 1.899119 -1.778912 -0.348984 0.093881 0.445513 -0.699474 0.179925 2.090625 -0.697267 0.188287 12.159934 5.071754 -3.583520 -1.148138 0.386138 -3.897931 -16.534872 -57.201830 -19.511250 -51.056207 -132.623655 -98.693365 0.000001 -0.000001 -0.000009 105.037914 4.763049 -15.872031 0.000001 0.000002 -3.000001 -5.000215 -7.998984 0.000134 -10.433824 62.880791 12.535456 -59.474480 139.867234 91.482003 0.000001 0.000000 0.000004 91.929217 -4.156384 7.429006 0.000005 0.000022 3.000002 -5.000211 7.998743 -0.000141 -0.477706 -172.540264 4.030629 -179.999991 0.000005 -0.952998 168.434883 -1.500917 -0.687103 -0.000001 0.000000 0.020365 70.091231 5.997167 4.413373 25.458263 -7.355616 0.002025 0.448390 173.396196 -1.972317 -0.000020 -0.000005 -0.962258 -12.386926 1.467920 0.731702 -0.000007 -0.000001 -0.123659 72.179984 -6.061191 -4.219008 25.458772 7.355611 -0.002702 
53.014801 -9.567607 96.059792 -4.574728 0.019147 1.896422 -1.781004 -0.349293 0.093831 0.441303 -0.699668 0.179148 2.086415 -0.697474 0.187515 12.194518 5.068711 -3.580204 -1.196657 0.371230 -3.891385 -16.529459 -57.199416 -19.504734 -51.162215 -132.546419 -98.704027 0.000001 -0.000002 -0.000006 105.078431 4.765827 -15.893111 -0.000002 -0.000001 -3.000002 -5.000213 -7.998985 0.000127 -10.416094 62.879090 12.514867 -59.499096 139.718049 91.586102 0.000001 -0.000002 0.000006 91.979904 -4.184363 7.464341 0.000003 0.000021 3.000000 -5.000211 7.998747 -0.000144 -0.482315 -172.541261 4.028238 -179.999991 0.000005 -0.952997 168.440784 -1.499959 -0.687744 -0.000001 0.000001 0.020339 70.087713 5.996994 4.414432 25.458267 -7.355614 0.002026 0.444870 173.396196 -1.971343 -0.000020 -0.000005 -0.962240 -12.382528 1.468501 0.731655 -0.000007 -0.000001 -0.123658 72.178926 -6.061839 -4.217667 25.458774 7.355611 -0.002702 
53.013901 -9.570237 96.056389 -4.568997 0.019252 1.893239 -1.782543 -0.349557 0.093803 0.438164 -0.699789 0.178221 2.083275 -0.697610 0.186591 12.214555 5.066355 -3.576149 -1.225998 0.356541 -3.884899 -16.522412 -57.192620 -19.496208 -51.265849 -132.469934 -98.711690 0.000000 -0.000001 -0.000005 105.125122 4.769331 -15.917542 -0.000003 0.000000 -2.999999 -5.000212 -7.998986 0.000133 -10.403707 62.874856 12.500322 -59.516322 139.571077 91.695508 0.000003 -0.000001 0.000004 92.031185 -4.214776 7.500757 0.000005 0.000018 2.999999 -5.000213 7.998741 -0.000146 -0.484519 -172.542272 4.025671 -179.999991 0.000006 -0.952000 168.450401 -1.498056 -0.687093 -0.000002 0.000001 0.020276 70.081866 5.996680 4.416495 25.458263 -7.355616 0.002025 0.443549 173.397206 -1.970533 -0.000020 -0.000005 -0.962223 -12.375829 1.469077 0.731510 -0.000008 -0.000001 -0.123658 72.176924 -6.062803 -4.215727 25.458772 7.355611 -0.002703 
53.009602 -9.570835 96.056602 -4.564081 0.019278 1.889649 -1.783604 -0.349780 0.093792 0.435993 -0.699853 0.177169 2.081104 -0.697689 0.185543 12.221550 5.064590 -3.571464 -1.238211 0.342055 -3.878496 -16.513996 -57.182053 -19.485994 -51.365417 -132.395431 -98.713917 0.000000 -0.000001 -0.000006 105.177516 4.773065 -15.947278 -0.000002 0.000000 -3.000000 -5.000212 -7.998984 0.000127 -10.396005 62.868674 12.491094 -59.526977 139.427028 91.807161 -0.000002 -0.000001 0.000006 92.083606 -4.247047 7.540273 0.000003 0.000018 3.000002 -5.000212 7.998748 -0.000142 -0.484658 -172.543269 4.022982 -179.999991 0.000005 -0.952001 168.463214 -1.495179 -0.686157 -0.000001 0.000000 0.020181 70.074223 5.996289 4.418936 25.458268 -7.355616 0.002026 0.444115 173.398190 -1.969880 -0.000019 -0.000005 -0.962207 -12.367230 1.469653 0.731279 -0.000007 -0.000001 -0.123658 72.174145 -6.064011 -4.213269 25.458774 7.355612 -0.002703 
53.009499 -9.570199 96.058205 -4.559879 0.019241 1.885724 -1.784224 -0.349969 0.093792 0.434686 -0.699874 0.176018 2.079805 -0.697727 0.184395 12.216906 5.063329 -3.566303 -1.235383 0.327754 -3.872231 -16.504310 -57.168086 -19.474201 -51.463532 -132.321105 -98.713842 -0.000001 -0.000001 -0.000007 105.234746 4.777055 -15.979224 0.000000 -0.000001 -3.000002 -5.000212 -7.998979 0.000128 -10.392213 62.860874 12.486313 -59.533329 139.285644 91.920016 -0.000003 -0.000002 0.000003 92.137756 -4.280544 7.579896 0.000003 0.000020 3.000002 -5.000213 7.998741 -0.000145 -0.483068 -172.544266 4.020216 -179.999991 0.000006 -0.952001 168.478446 -1.491338 -0.685957 -0.000001 0.000001 0.020058 70.065085 5.995803 4.421944 25.458267 -7.355614 0.002026 0.446267 173.400184 -1.969352 -0.000020 -0.000005 -0.962191 -12.357130 1.470217 0.730973 -0.000007 -0.000001 -0.123658 72.170702 -6.065445 -4.210481 25.458774 7.355611 -0.002702 
53.010601 -9.572419 96.058998 -4.556308 0.019153 1.881576 -1.784452 -0.350128 0.093800 0.434141 -0.699870 0.174792 2.079255 -0.697741 0.183173 12.202330 5.062461 -3.560781 -1.219571 0.313618 -3.866134 -16.493631 -57.151406 -19.461178 -51.558390 -132.248117 -98.708856 -0.000000 -0.000001 -0.000009 105.296368 4.781407 -16.014441 -0.000000 0.000000 -2.999999 -5.000213 -7.998978 0.000131 -10.391660 62.851927 12.485206 -59.537092 139.147278 92.032250 -0.000002 0.000000 0.000003 92.194296 -4.314814 7.622661 0.000004 0.000018 2.999999 -5.000213 7.998743 -0.000145 -0.480081 -172.545263 4.017422 -179.999991 0.000005 -0.952001 168.495467 -1.488496 -0.685929 -0.000001 0.000000 0.019912 70.054771 5.995246 4.425404 25.458265 -7.355614 0.002025 0.449707 173.401209 -1.968949 -0.000020 -0.000005 -0.962175 -12.345828 1.470759 0.730598 -0.000007 -0.000001 -0.123658 72.166877 -6.067000 -4.207335 25.458769 7.355612 -0.002702 
